<svg id="Layer_1" data-name="Layer 1" xmlns="http://www.w3.org/2000/svg" viewBox="0 0 700.701 501.51">
  <path d="M642.586,501.51a58.115,58.115,0,0,0,58.057-60.687c-1.912-43.243-28.754-106.088-104.306-161.193C515.793,220.884,547.489,30.957,424.49,6.12c-221.84-44.8-181.836,168.615-320.311,241.186C16.032,293.5.006,383.887,0,443.487A58.077,58.077,0,0,0,58.112,501.51Z" fill="#f3f5fd"></path>
  <path d="M624.3,501.51H490.408c-7.343-19.845,14.721-29.631,21.736-16.771-4.184-7.671-5.3-17.394,3.394-23.654,9.109-4.961,20.075.711,21.754,9.686-2.234-11.951,8.4-23.861,20.242-26.568,30.384-6.946,37.158,24.179,34.4,29.072C599.964,459.016,633.144,476.614,624.3,501.51Z" fill="#8ddbe0"></path>
  <g>
    <path d="M299.094,72.235l.2-.463-4.905,3.268-3.226-11.879s12.159-18.029,27-16.59a1.888,1.888,0,0,1,.956,3.384c-4.581,3.456-12.516,9.872-14.649,14.315,2.152-.645,5.145-1.352,5.454-.4C310.738,66.37,301.575,70.583,299.094,72.235Z" fill="#E98862"></path>
    <circle cx="312.717" cy="57.137" r="9.584" fill="#dee8f5"></circle>
    <path d="M312.108,59.137a2,2,0,0,1-1.771-1.067c-.4-.766-9.837-18.913-4.442-31.869,2.191-5.263,6.471-8.9,12.721-10.806a2,2,0,0,1,1.168,3.827c-5.127,1.564-8.462,4.35-10.2,8.517-4.679,11.236,4.2,28.293,4.287,28.464a2,2,0,0,1-1.766,2.934Z" fill="#c1d8ed"></path>
    <circle cx="315.103" cy="56.44" r="9.584" fill="#c1d8ed"></circle>
    <path d="M297.412,490.69c-2.214-18.618-2.214-20.533-2.214-21.163h21c0-.063,0-.145,0-.245.075,1.555,1.134,11.035,2.073,18.928Z" fill="#E98862"></path>
    <path d="M475.546,393.308s-20.4-7.539-22.206-8.212l7.348-19.674c1.8.672,22.136,8.187,22.137,8.188Z" fill="#E98862"></path>
    <path d="M401.274,331.17c-3.708-36.841-12.162-139.093-12.162-139.093l-76.077,4.695s-33.554,119.642-33.554,141.757l10.226,146.5,36.91-2.576L316.625,339.3c9.67-32.164,20-64.341,31.4-96.009,3.691,34.715,9.035,70.194,13.3,104.237A19.922,19.922,0,0,0,373.744,364.1l89.1,35.679,14.534-34.026Z" fill="#262626"></path>
    <path d="M474.229,420.065a4.107,4.107,0,0,1-5.573,2.271h0a4.109,4.109,0,0,1-2.377-3.725l.877-25.762a3.464,3.464,0,0,1,1.3-2.579,19.1,19.1,0,0,0,7.2-9.555,17.03,17.03,0,0,0,.065-9.39,1.547,1.547,0,0,1,2.01-1.948l11.2,4.179a2.679,2.679,0,0,1,1.569,3.456Z" fill="#c1d8ed"></path>
    <path d="M271.826,501.323a4.108,4.108,0,0,1-4.076-4.427h0a4.106,4.106,0,0,1,2.658-3.529l24.443-8.187a3.464,3.464,0,0,1,2.872.319,19.1,19.1,0,0,0,11.468,3.4,17.031,17.031,0,0,0,8.82-3.222,1.547,1.547,0,0,1,2.528,1.2v11.953a2.678,2.678,0,0,1-2.689,2.678Z" fill="#c1d8ed"></path>
    <path d="M354.622,86.605s-8.343-2.645-10.423-23.67l-16.249-.047s5.154,18.25-1.721,25.6Z" fill="#E98862"></path>
    <g opacity="0.15">
      <path d="M328.741,84.015l11.234-12.371L329.7,73.409A28.753,28.753,0,0,1,328.741,84.015Z"></path>
    </g>
    <path d="M382.029,151.775c-2.067-20.9,14.526-49.511-2.7-63.633-5-4.1-13.14-6.257-22.714-5.319-.164,5.653-8.719,16.077-21.039,16.482-9.245.3-13.018-7.455-13.818-12.9-1.292.148-2.3.267-2.919.359-1.184.169-2.295.383-3.35.632l-30.282,2.084,19.153-15.99L290.387,56.75,245.415,94.3a10.9,10.9,0,0,0,6.984,19.271c.249,0,.5-.008.752-.026l46.327-3.189c.352,13.424,6.157,30.305,7.762,44.816,3.585,32.264-4.54,39.218.736,48.664,5.117,9.17,87.441,5.043,86.868-11.922C394.479,181.112,384.1,172.683,382.029,151.775Z" fill="#FF5D76"></path>
    <path d="M351.651,53.276c.058,6.483-2.285,13.06-7.459,16.1a40.509,40.509,0,0,1-18.574,6.047c-17.463,1.728-21.2-38.015-14.414-47.1s31.634-8.65,36.869,3.528C350.78,38.146,351.6,47.105,351.651,53.276Z" fill="#E98862"></path>
    <g>
      <circle cx="325.895" cy="51.5" r="1.449" fill="#0f1011"></circle>
      <circle cx="314.481" cy="52.629" r="1.449" fill="#0f1011"></circle>
      <path d="M311.334,50.053a.681.681,0,0,1-.13-1.349l3.768-.736a.681.681,0,1,1,.262,1.336l-3.768.736A.656.656,0,0,1,311.334,50.053Z" fill="#0f1011"></path>
      <path d="M328.379,48.366h-.039l-3.887-.217a.681.681,0,0,1,.076-1.359l3.887.217a.681.681,0,0,1-.037,1.36Z" fill="#0f1011"></path>
      <path d="M327.284,62.846s-5.161,1.515-9.084.9c0,0,.661,3.46,4.888,3.042S327.284,62.846,327.284,62.846Z" fill="#fff"></path>
    </g>
    <path d="M337.1,39.1c3.73,28.947,8.206,31.189,8.206,31.189s12.754-11.23,11.483-28.791C355.6,25.041,341.968,17.68,333.6,17.349c-31.788-1.257-30.086,27.164-30.086,27.164,16,1.14,37-5.438,37-5.438" fill="#0f1011"></path>
    <path d="M333.947,53.635a6.143,6.143,0,1,0,12.226-1.21,6.041,6.041,0,0,0-6.718-5.508C335.122,47.562,333.613,50.259,333.947,53.635Z" fill="#E98862"></path>
    <circle cx="361.104" cy="27.002" r="14.006" fill="#0f1011"></circle>
    <path d="M321.759,86.4c.8,5.447,4.572,13.2,13.818,12.9,12.319-.405,20.875-10.829,21.039-16.482l-.03,0C344.535,84.018,328.774,85.6,321.759,86.4Z" fill="#E98862"></path>
    <g opacity="0.15">
      <path d="M320.921,60.568a.4.4,0,0,1-.06,0l-3.623-.427a.5.5,0,0,1-.426-.616l1.339-5.435a.5.5,0,0,1,.97.238l-1.2,4.887,3.061.361a.5.5,0,0,1-.058,1Z"></path>
    </g>
    <path d="M347.731,51c-.03,0-.06,0-.089,0a2,2,0,0,1-1.911-2.084c.006-.169.616-17-8.571-25.316-4.332-3.921-10.276-5.373-17.676-4.313a2,2,0,1,1-.567-3.959c8.637-1.241,15.683.553,20.941,5.319,10.579,9.591,9.9,27.679,9.869,28.445A2,2,0,0,1,347.731,51Z" fill="#c1d8ed"></path>
    <circle cx="346.203" cy="51.18" r="9.584" fill="#c1d8ed"></circle>
    <circle cx="349.203" cy="51.18" r="9.584" fill="#dee8f5"></circle>
    <path d="M332.975,147.476c-.284-1.322-6.834-32.524,5.178-46.071,19.794-22.319,10.811-43.035,10.717-43.241l.912-.412c.1.213,9.36,21.494-10.881,44.317-11.675,13.167-5.017,44.878-4.948,45.2Z" fill="#dee8f5"></path>
    <path d="M335.215,102.458A19.21,19.21,0,0,1,322.2,97.729c-11.04-9.612-11.358-30.241-11.366-31.114l1-.01c0,.21.324,21.058,11.025,30.371,4.171,3.63,9.42,5.066,15.6,4.265l.129.992A26.243,26.243,0,0,1,335.215,102.458Z" fill="#dee8f5"></path>
    <path d="M337.48,179.258l12.122-1.934a3.427,3.427,0,0,0,2.761-4.305l-7.627-27.372a3.427,3.427,0,0,0-3.841-2.465l-12.122,1.934a3.427,3.427,0,0,0-2.761,4.3l7.627,27.372A3.427,3.427,0,0,0,337.48,179.258Z" fill="#c1d8ed"></path>
    <path d="M358.545,155.548l-.408.3,5.883-.366-3.167,11.894s-19.561,9.5-31.68.811a1.888,1.888,0,0,1,.87-3.407c5.7-.692,15.779-2.263,19.853-5.038-2.186-.521-5.13-1.41-4.92-2.388C345.529,154.783,355.57,155.734,358.545,155.548Z" fill="#E98862"></path>
    <path d="M359.79,172.105l-1.205-21.771,32.907-1.821-28.961-47.239,18.588-11.4,38.51,62.812a10.9,10.9,0,0,1-8.691,16.584Z" fill="#FF5D76"></path>
  </g>
  <g>
    <path d="M138.686,417.671c-5-1.636-10.132.2-15.042,3.935,6.468-16.33,9.136-31.08-1.92-31.745-7.736-.464-13.662,5.47-18.164,13.908-1.583-14.835-5.668-25.9-14.819-22.231-10.046,4.027-11.574,17.829-10.05,32.271-4.426-7.376-9.191-11.49-13.518-7.163-12.913,12.913,18.783,49.3,18.783,49.3h7.871l4.493,4.877c-.91,1.922-1.408,3.068-1.408,3.068l5.706,11.612S159.436,424.464,138.686,417.671Z" fill="#8ddbe0"></path>
    <polygon points="124.573 501.51 80.023 501.51 72.565 449.503 132.03 449.503 124.573 501.51" fill="#c1d8ed"></polygon>
  </g>
</svg>